<svg width="1920" height="1080" viewBox="0 0 1920 1080" fill="none" xmlns="http://www.w3.org/2000/svg">
<rect width="1920" height="1080" fill="white"/>
<g filter="url(#filter0_f_1085_847)">
<path d="M731.562 391.814L919.86 257.586L1216.5 673.199L1028.2 807.428L731.562 391.814Z" fill="#BCFFE7"/>
<path d="M1180.35 807.564L978.054 695.501L1225.71 249L1428 361.063L1180.35 807.564Z" fill="#BCFFE7"/>
<path d="M695.293 832L493 719.937L740.653 273.436L942.946 385.499L695.293 832Z" fill="#BCFFE7"/>
</g>
<path d="M489.803 572H461.065L493.443 473.908H529.845L562.223 572H533.485L512.027 500.922H511.261L489.803 572ZM484.439 533.3H538.466V553.225H484.439V533.3ZM622.901 572H585.158V473.908H622.517C632.608 473.908 641.325 475.872 648.669 479.799C656.045 483.695 661.729 489.315 665.72 496.659C669.743 503.971 671.755 512.736 671.755 522.954C671.755 533.172 669.759 541.953 665.768 549.297C661.777 556.609 656.125 562.229 648.813 566.157C641.5 570.052 632.863 572 622.901 572ZM611.789 549.393H621.943C626.796 549.393 630.931 548.611 634.348 547.046C637.796 545.481 640.415 542.783 642.203 538.951C644.023 535.12 644.933 529.787 644.933 522.954C644.933 516.121 644.007 510.788 642.155 506.957C640.335 503.125 637.653 500.427 634.108 498.862C630.596 497.297 626.285 496.515 621.176 496.515H611.789V549.393ZM697.564 572V473.908H739.905C747.185 473.908 753.555 475.233 759.015 477.883C764.476 480.534 768.722 484.349 771.756 489.331C774.789 494.312 776.306 500.283 776.306 507.244C776.306 514.269 774.741 520.192 771.612 525.014C768.515 529.835 764.156 533.475 758.536 535.934C752.948 538.393 746.419 539.622 738.947 539.622H713.657V518.931H733.582C736.711 518.931 739.378 518.547 741.581 517.781C743.816 516.983 745.524 515.722 746.706 513.997C747.919 512.273 748.526 510.022 748.526 507.244C748.526 504.434 747.919 502.151 746.706 500.395C745.524 498.607 743.816 497.297 741.581 496.467C739.378 495.605 736.711 495.174 733.582 495.174H724.195V572H697.564ZM755.04 526.977L779.563 572H750.633L726.685 526.977H755.04ZM801.145 572V473.908H871.84V495.366H827.776V512.225H868.2V533.683H827.776V550.542H871.649V572H801.145ZM983.408 473.908V572H961.184L925.741 520.463H925.166V572H898.535V473.908H921.143L956.011 525.253H956.778V473.908H983.408ZM1034.97 572H1006.24L1038.61 473.908H1075.02L1107.39 572H1078.66L1057.2 500.922H1056.43L1034.97 572ZM1029.61 533.3H1083.64V553.225H1029.61V533.3ZM1130.33 572V473.908H1156.96V550.542H1196.62V572H1130.33ZM1247.5 473.908V572H1220.87V473.908H1247.5ZM1358.48 473.908V572H1336.26L1300.81 520.463H1300.24V572H1273.61V473.908H1296.22L1331.08 525.253H1331.85V473.908H1358.48ZM1384.57 572V473.908H1455.26V495.366H1411.2V512.225H1451.62V533.683H1411.2V550.542H1455.07V572H1384.57Z" fill="black"/>
<rect x="588.5" y="603" width="99" height="36" rx="4" fill="black"/>
<path d="M458.056 631L467.001 611.433H469.041L477.986 631H475.806L467.588 612.635H468.426L460.208 631H458.056ZM461.578 625.773L462.193 624.096H473.57L474.185 625.773H461.578ZM481.223 631V611.433H483.292V629.211H494.249V631H481.223ZM506.844 620.909H517.187V622.698H506.844V620.909ZM507.068 631H505V611.433H518.417V613.222H507.068V631ZM518.63 631L527.575 611.433H529.615L538.56 631H536.38L528.162 612.635H529L520.782 631H518.63ZM522.152 625.773L522.767 624.096H534.144L534.758 625.773H522.152ZM544.303 631.168C543.203 631.168 542.169 630.925 541.2 630.441C540.25 629.956 539.486 629.267 538.908 628.372L540.11 626.975C540.65 627.757 541.275 628.354 541.983 628.764C542.691 629.174 543.474 629.379 544.331 629.379C546.753 629.379 547.965 627.944 547.965 625.074V613.222H540.809V611.433H550.005V624.99C550.005 627.059 549.521 628.605 548.552 629.63C547.601 630.655 546.185 631.168 544.303 631.168ZM556.21 631V611.433H563.534C565.192 611.433 566.618 611.703 567.811 612.244C569.003 612.765 569.916 613.529 570.55 614.536C571.202 615.523 571.528 616.725 571.528 618.142C571.528 619.521 571.202 620.713 570.55 621.72C569.916 622.707 569.003 623.471 567.811 624.012C566.618 624.534 565.192 624.794 563.534 624.794H557.356L558.279 623.844V631H556.21ZM569.572 631L564.54 623.9H566.776L571.836 631H569.572ZM558.279 624.012L557.356 623.033H563.478C565.435 623.033 566.916 622.605 567.922 621.748C568.947 620.89 569.46 619.688 569.46 618.142C569.46 616.576 568.947 615.365 567.922 614.508C566.916 613.651 565.435 613.222 563.478 613.222H557.356L558.279 612.244V624.012Z" fill="black"/>
<path d="M594.948 631L603.669 618.813L603.641 623.425L595.199 611.433H602.607L607.526 618.701L604.368 618.729L609.176 611.433H616.276L607.834 623.173V618.589L616.695 631H609.148L604.228 623.397L607.275 623.369L602.467 631H594.948ZM614.813 631L623.367 611.433H629.852L638.405 631H631.585L625.268 614.564H627.839L621.522 631H614.813ZM619.901 627.59L621.578 622.838H630.579L632.256 627.59H619.901ZM649.444 631.447C647.86 631.447 646.388 631.196 645.027 630.693C643.686 630.189 642.521 629.481 641.533 628.568C640.546 627.636 639.772 626.546 639.213 625.298C638.673 624.049 638.403 622.689 638.403 621.216C638.403 619.726 638.673 618.365 639.213 617.135C639.772 615.887 640.546 614.806 641.533 613.893C642.521 612.961 643.686 612.244 645.027 611.74C646.388 611.237 647.86 610.986 649.444 610.986C651.047 610.986 652.519 611.237 653.861 611.74C655.202 612.244 656.367 612.961 657.355 613.893C658.342 614.806 659.106 615.887 659.647 617.135C660.206 618.365 660.485 619.726 660.485 621.216C660.485 622.689 660.206 624.049 659.647 625.298C659.106 626.546 658.342 627.636 657.355 628.568C656.367 629.481 655.202 630.189 653.861 630.693C652.519 631.196 651.047 631.447 649.444 631.447ZM649.444 626.108C650.059 626.108 650.627 625.996 651.149 625.773C651.69 625.549 652.155 625.232 652.547 624.822C652.957 624.394 653.274 623.881 653.497 623.285C653.721 622.67 653.833 621.981 653.833 621.216C653.833 620.452 653.721 619.772 653.497 619.176C653.274 618.561 652.957 618.048 652.547 617.639C652.155 617.21 651.69 616.884 651.149 616.66C650.627 616.437 650.059 616.325 649.444 616.325C648.829 616.325 648.251 616.437 647.711 616.66C647.189 616.884 646.723 617.21 646.313 617.639C645.922 618.048 645.614 618.561 645.391 619.176C645.167 619.772 645.055 620.452 645.055 621.216C645.055 621.981 645.167 622.67 645.391 623.285C645.614 623.881 645.922 624.394 646.313 624.822C646.723 625.232 647.189 625.549 647.711 625.773C648.251 625.996 648.829 626.108 649.444 626.108ZM662.88 631V611.433H668.303L678.254 623.341H675.738V611.433H682.167V631H676.744L666.793 619.092H669.309V631H662.88Z" fill="#00FFA4"/>
<path d="M1082.06 630L1091 610.433H1093.04L1101.99 630H1099.81L1091.59 611.635H1092.43L1084.21 630H1082.06ZM1085.58 624.773L1086.19 623.096H1097.57L1098.18 624.773H1085.58ZM1109.83 630L1117.85 619.154V620.748L1110.3 610.433H1112.68L1119.02 619.042L1118.1 619.07L1124.45 610.433H1126.68L1119.22 620.608V619.154L1127.21 630H1124.81L1118.05 620.803H1118.91L1112.2 630H1109.83ZM1134.71 630V622.732L1135.18 624.018L1126.88 610.433H1129.09L1136.38 622.369H1135.21L1142.5 610.433H1144.57L1136.27 624.018L1136.75 622.732V630H1134.71ZM1147.37 630V610.433H1154.69C1156.35 610.433 1157.78 610.703 1158.97 611.244C1160.16 611.765 1161.08 612.529 1161.71 613.536C1162.36 614.523 1162.69 615.725 1162.69 617.142C1162.69 618.521 1162.36 619.713 1161.71 620.72C1161.08 621.707 1160.16 622.471 1158.97 623.012C1157.78 623.552 1156.35 623.822 1154.69 623.822H1148.52L1149.44 622.844V630H1147.37ZM1149.44 623.012L1148.52 622.005H1154.64C1156.6 622.005 1158.08 621.586 1159.08 620.748C1160.11 619.89 1160.62 618.688 1160.62 617.142C1160.62 615.576 1160.11 614.365 1159.08 613.508C1158.08 612.651 1156.6 612.222 1154.64 612.222H1148.52L1149.44 611.244V623.012ZM1169.01 619.182H1179.35V620.943H1169.01V619.182ZM1169.23 628.211H1181V630H1167.16V610.433H1180.58V612.222H1169.23V628.211ZM1185.86 630V610.433H1193.18C1194.84 610.433 1196.27 610.703 1197.46 611.244C1198.65 611.765 1199.57 612.529 1200.2 613.536C1200.85 614.523 1201.18 615.725 1201.18 617.142C1201.18 618.521 1200.85 619.713 1200.2 620.72C1199.57 621.707 1198.65 622.471 1197.46 623.012C1196.27 623.534 1194.84 623.794 1193.18 623.794H1187.01L1187.93 622.844V630H1185.86ZM1199.22 630L1194.19 622.9H1196.43L1201.49 630H1199.22ZM1187.93 623.012L1187.01 622.033H1193.13C1195.09 622.033 1196.57 621.605 1197.57 620.748C1198.6 619.89 1199.11 618.688 1199.11 617.142C1199.11 615.576 1198.6 614.365 1197.57 613.508C1196.57 612.651 1195.09 612.222 1193.13 612.222H1187.01L1187.93 611.244V623.012ZM1217.18 630V612.222H1210.3V610.433H1226.12V612.222H1219.25V630H1217.18ZM1231.27 619.182H1241.62V620.943H1231.27V619.182ZM1231.5 628.211H1243.26V630H1229.43V610.433H1242.85V612.222H1231.5V628.211ZM1248.13 630V610.433H1250.2V628.211H1261.15V630H1248.13ZM1266.43 619.182H1276.78V620.943H1266.43V619.182ZM1266.66 628.211H1278.42V630H1264.59V610.433H1278V612.222H1266.66V628.211ZM1280.33 630L1288.35 619.154V620.748L1280.8 610.433H1283.18L1289.53 619.042L1288.6 619.07L1294.95 610.433H1297.19L1289.72 620.608V619.154L1297.72 630H1295.31L1288.55 620.803H1289.41L1282.71 630H1280.33ZM1317.2 630.168C1315.73 630.168 1314.37 629.925 1313.12 629.441C1311.87 628.938 1310.79 628.239 1309.87 627.344C1308.96 626.45 1308.24 625.397 1307.72 624.186C1307.22 622.975 1306.97 621.651 1306.97 620.216C1306.97 618.782 1307.22 617.458 1307.72 616.247C1308.24 615.036 1308.96 613.983 1309.87 613.088C1310.81 612.194 1311.9 611.504 1313.15 611.02C1314.39 610.517 1315.75 610.265 1317.23 610.265C1318.64 610.265 1319.98 610.508 1321.22 610.992C1322.47 611.458 1323.53 612.166 1324.38 613.116L1323.07 614.43C1322.27 613.61 1321.38 613.023 1320.41 612.669C1319.44 612.296 1318.4 612.11 1317.28 612.11C1316.11 612.11 1315.02 612.315 1314.01 612.725C1313.01 613.116 1312.13 613.685 1311.38 614.43C1310.64 615.157 1310.05 616.014 1309.62 617.002C1309.21 617.971 1309.01 619.042 1309.01 620.216C1309.01 621.391 1309.21 622.471 1309.62 623.459C1310.05 624.428 1310.64 625.285 1311.38 626.031C1312.13 626.757 1313.01 627.326 1314.01 627.736C1315.02 628.127 1316.11 628.323 1317.28 628.323C1318.4 628.323 1319.44 628.136 1320.41 627.764C1321.38 627.391 1322.27 626.795 1323.07 625.975L1324.38 627.289C1323.53 628.239 1322.47 628.956 1321.22 629.441C1319.98 629.925 1318.63 630.168 1317.2 630.168ZM1336.94 630.168C1335.46 630.168 1334.09 629.925 1332.83 629.441C1331.58 628.938 1330.49 628.239 1329.56 627.344C1328.64 626.431 1327.93 625.378 1327.4 624.186C1326.9 622.975 1326.65 621.651 1326.65 620.216C1326.65 618.782 1326.9 617.468 1327.4 616.275C1327.93 615.064 1328.64 614.011 1329.56 613.116C1330.49 612.203 1331.58 611.504 1332.83 611.02C1334.08 610.517 1335.45 610.265 1336.94 610.265C1338.41 610.265 1339.77 610.517 1341.02 611.02C1342.27 611.504 1343.35 612.194 1344.26 613.088C1345.19 613.983 1345.91 615.036 1346.41 616.247C1346.93 617.458 1347.19 618.782 1347.19 620.216C1347.19 621.651 1346.93 622.975 1346.41 624.186C1345.91 625.397 1345.19 626.45 1344.26 627.344C1343.35 628.239 1342.27 628.938 1341.02 629.441C1339.77 629.925 1338.41 630.168 1336.94 630.168ZM1336.94 628.323C1338.11 628.323 1339.19 628.127 1340.18 627.736C1341.18 627.326 1342.05 626.757 1342.78 626.031C1343.52 625.285 1344.1 624.428 1344.51 623.459C1344.92 622.471 1345.13 621.391 1345.13 620.216C1345.13 619.042 1344.92 617.971 1344.51 617.002C1344.1 616.014 1343.52 615.157 1342.78 614.43C1342.05 613.685 1341.18 613.116 1340.18 612.725C1339.19 612.315 1338.11 612.11 1336.94 612.11C1335.76 612.11 1334.67 612.315 1333.67 612.725C1332.66 613.116 1331.78 613.685 1331.04 614.43C1330.31 615.157 1329.73 616.014 1329.3 617.002C1328.89 617.971 1328.69 619.042 1328.69 620.216C1328.69 621.372 1328.89 622.443 1329.3 623.431C1329.73 624.419 1330.31 625.285 1331.04 626.031C1331.78 626.757 1332.66 627.326 1333.67 627.736C1334.67 628.127 1335.76 628.323 1336.94 628.323ZM1351.83 630V610.433H1353.54L1362.48 625.695H1361.59L1370.45 610.433H1372.15V630H1370.17V613.536H1370.64L1362.48 627.512H1361.5L1353.28 613.536H1353.82V630H1351.83ZM1378.53 630V610.433H1385.85C1387.51 610.433 1388.94 610.703 1390.13 611.244C1391.32 611.765 1392.23 612.529 1392.87 613.536C1393.52 614.523 1393.85 615.725 1393.85 617.142C1393.85 618.521 1393.52 619.713 1392.87 620.72C1392.23 621.707 1391.32 622.471 1390.13 623.012C1388.94 623.552 1387.51 623.822 1385.85 623.822H1379.67L1380.6 622.844V630H1378.53ZM1380.6 623.012L1379.67 622.005H1385.8C1387.75 622.005 1389.23 621.586 1390.24 620.748C1391.27 619.89 1391.78 618.688 1391.78 617.142C1391.78 615.576 1391.27 614.365 1390.24 613.508C1389.23 612.651 1387.75 612.222 1385.8 612.222H1379.67L1380.6 611.244V623.012ZM1394.21 630L1403.15 610.433H1405.19L1414.14 630H1411.96L1403.74 611.635H1404.58L1396.36 630H1394.21ZM1397.73 624.773L1398.34 623.096H1409.72L1410.33 624.773H1397.73ZM1417.37 630V610.433H1419.08L1432.58 627.428H1431.69V610.433H1433.73V630H1432.02L1418.55 613.005H1419.44V630H1417.37ZM1444.78 630V622.732L1445.26 624.018L1436.95 610.433H1439.16L1446.46 622.369H1445.28L1452.58 610.433H1454.65L1446.35 624.018L1446.82 622.732V630H1444.78Z" fill="black"/>
<path d="M594.276 631L602.998 618.813L602.97 623.425L594.528 611.433H601.935L606.855 618.701L603.697 618.729L608.504 611.433H615.604L607.163 623.173V618.589L616.024 631H608.476L603.557 623.397L606.604 623.369L601.796 631H594.276ZM614.142 631L622.696 611.433H629.181L637.734 631H630.914L624.596 614.564H627.168L620.851 631H614.142ZM619.229 627.59L620.907 622.838H629.907L631.585 627.59H619.229ZM648.773 631.447C647.189 631.447 645.717 631.196 644.356 630.693C643.014 630.189 641.85 629.481 640.862 628.568C639.874 627.636 639.101 626.546 638.542 625.298C638.002 624.049 637.731 622.689 637.731 621.216C637.731 619.726 638.002 618.365 638.542 617.135C639.101 615.887 639.874 614.806 640.862 613.893C641.85 612.961 643.014 612.244 644.356 611.74C645.717 611.237 647.189 610.986 648.773 610.986C650.375 610.986 651.848 611.237 653.189 611.74C654.531 612.244 655.696 612.961 656.683 613.893C657.671 614.806 658.435 615.887 658.976 617.135C659.535 618.365 659.814 619.726 659.814 621.216C659.814 622.689 659.535 624.049 658.976 625.298C658.435 626.546 657.671 627.636 656.683 628.568C655.696 629.481 654.531 630.189 653.189 630.693C651.848 631.196 650.375 631.447 648.773 631.447ZM648.773 626.108C649.388 626.108 649.956 625.996 650.478 625.773C651.018 625.549 651.484 625.232 651.876 624.822C652.286 624.394 652.602 623.881 652.826 623.285C653.05 622.67 653.161 621.981 653.161 621.216C653.161 620.452 653.05 619.772 652.826 619.176C652.602 618.561 652.286 618.048 651.876 617.639C651.484 617.21 651.018 616.884 650.478 616.66C649.956 616.437 649.388 616.325 648.773 616.325C648.158 616.325 647.58 616.437 647.04 616.66C646.518 616.884 646.052 617.21 645.642 617.639C645.251 618.048 644.943 618.561 644.72 619.176C644.496 619.772 644.384 620.452 644.384 621.216C644.384 621.981 644.496 622.67 644.72 623.285C644.943 623.881 645.251 624.394 645.642 624.822C646.052 625.232 646.518 625.549 647.04 625.773C647.58 625.996 648.158 626.108 648.773 626.108ZM662.209 631V611.433H667.631L677.583 623.341H675.067V611.433H681.496V631H676.073L666.122 619.092H668.638V631H662.209Z" fill="#00FFA4"/>
<defs>
<filter id="filter0_f_1085_847" x="268" y="24" width="1385" height="1033" filterUnits="userSpaceOnUse" color-interpolation-filters="sRGB">
<feFlood flood-opacity="0" result="BackgroundImageFix"/>
<feBlend mode="normal" in="SourceGraphic" in2="BackgroundImageFix" result="shape"/>
<feGaussianBlur stdDeviation="112.5" result="effect1_foregroundBlur_1085_847"/>
</filter>
</defs>
</svg>
