<svg width="100" height="100" viewBox="0 0 100 100" fill="none" xmlns="http://www.w3.org/2000/svg">
<g clip-path="url(#clip0_1070_918)">
<path d="M65 50V25L100 0V30L80 50H65Z" fill="black"/>
<path d="M65 25L100 0L50 15L0 0L35 25H65Z" fill="black"/>
<path d="M65 75L100 100V65L90 50L65 75Z" fill="black"/>
<path d="M35 50V75L0 100V70L20 50H35Z" fill="black"/>
<path d="M35 25L0 0V35L10 50L35 25Z" fill="black"/>
<path d="M35 75L0 100L50 85L100 100L65 75H35Z" fill="black"/>
</g>
<defs>
<clipPath id="clip0_1070_918">
<rect width="100" height="100" fill="white"/>
</clipPath>
</defs>
</svg>
