<svg width="100" height="100" viewBox="0 0 100 100" fill="none" xmlns="http://www.w3.org/2000/svg">
<g clip-path="url(#clip0_1070_918)">
<path d="M64.1716 75H37C35.8954 75 35 74.1046 35 73V52C35 50.8954 34.1046 50 33 50H20.8284C20.298 50 19.7893 50.2107 19.4142 50.5858L0.585785 69.4142C0.210716 69.7893 0 70.298 0 70.8284V97.3119C0 98.6517 1.29147 99.6126 2.57469 99.2276L49.4253 85.1724C49.8002 85.0599 50.1998 85.0599 50.5747 85.1724L97.4253 99.2276C98.7085 99.6126 100 98.6517 100 97.3119V65.6056C100 65.2107 99.8831 64.8247 99.6641 64.4962L91.3533 52.0299C90.6532 50.9798 89.1674 50.8326 88.2749 51.7251L65.5858 74.4142C65.2107 74.7893 64.702 75 64.1716 75Z" fill="black"/>
<path d="M35.8284 25H63C64.1046 25 65 25.8954 65 27V48C65 49.1046 65.8954 50 67 50H79.1716C79.702 50 80.2107 49.7893 80.5858 49.4142L99.4142 30.5858C99.7893 30.2107 100 29.702 100 29.1716V2.68806C100 1.34834 98.7085 0.387441 97.4253 0.772408L50.5747 14.8276C50.1998 14.9401 49.8002 14.9401 49.4253 14.8276L2.5747 0.772409C1.29147 0.387442 0 1.34834 0 2.68806V34.3944C0 34.7893 0.116876 35.1753 0.335899 35.5038L8.64675 47.9701C9.34683 49.0202 10.8326 49.1674 11.7251 48.2749L34.4142 25.5858C34.7893 25.2107 35.298 25 35.8284 25Z" fill="black"/>
</g>
<defs>
<clipPath id="clip0_1070_918">
<rect width="100" height="100" fill="white"/>
</clipPath>
</defs>
</svg>
